<?xml version="1.0" standalone="no"?>
<!DOCTYPE svg PUBLIC "-//W3C//DTD SVG 20010904//EN"
 "http://www.w3.org/TR/2001/REC-SVG-20010904/DTD/svg10.dtd">
<svg version="1.0" xmlns="http://www.w3.org/2000/svg"
 width="1200.000000pt" height="628.000000pt" viewBox="0 0 1200.000000 628.000000"
 preserveAspectRatio="xMidYMid meet">
<metadata>
Created by potrace 1.16, written by Peter Selinger 2001-2019
</metadata>
<g transform="translate(0.000000,628.000000) scale(0.100000,-0.100000)"
fill="#000000" stroke="none">
<path d="M2506 4299 c-190 -28 -400 -116 -547 -230 -215 -167 -351 -377 -427
-658 -23 -86 -25 -115 -25 -271 0 -156 2 -185 25 -271 74 -276 200 -475 406
-640 415 -333 1008 -343 1434 -24 244 183 403 449 453 757 69 429 -119 876
-477 1132 -234 166 -561 246 -842 205z m-15 -662 c41 -20 84 -46 97 -57 l24
-19 -62 -85 -61 -85 -46 29 c-102 65 -226 61 -294 -10 -54 -57 -74 -130 -74
-275 1 -66 6 -138 13 -161 43 -147 183 -195 339 -116 l62 32 44 -63 c85 -120
82 -112 48 -136 -211 -150 -536 -121 -684 61 -83 103 -117 211 -117 375 0 136
12 196 55 288 59 123 150 206 273 246 46 16 81 19 183 16 123 -3 128 -4 200
-40z m433 -4 c3 -10 46 -187 96 -393 49 -206 93 -383 97 -393 5 -11 44 127
112 393 l104 410 144 0 c78 0 143 -4 143 -9 0 -17 -339 -1060 -359 -1106 -75
-170 -221 -285 -406 -320 -128 -25 -120 -30 -134 81 -7 53 -11 98 -9 100 3 2
40 13 84 24 75 19 146 58 167 90 6 11 -41 175 -162 565 -95 303 -174 556 -176
563 -3 9 30 12 145 12 133 0 149 -2 154 -17z"/>
<path d="M9131 4158 c-53 -28 -81 -76 -81 -136 0 -58 21 -104 61 -133 46 -33
153 -35 195 -3 53 39 69 71 69 134 0 92 -52 147 -146 156 -44 5 -62 1 -98 -18z"/>
<path d="M4455 3667 c-62 -21 -103 -45 -150 -88 -41 -38 -43 -39 -49 -17 -3
13 -6 38 -6 56 l0 32 -125 0 -125 0 0 -726 0 -726 28 6 c15 3 78 10 140 17
l112 12 0 235 0 236 28 -26 c54 -51 110 -71 207 -76 75 -3 100 0 147 18 118
44 211 164 255 330 24 90 23 318 -1 415 -55 211 -156 306 -335 312 -52 2 -102
-2 -126 -10z m78 -201 c79 -34 107 -101 114 -278 8 -195 -19 -298 -92 -354
-68 -51 -164 -42 -236 23 l-39 35 0 232 0 232 35 41 c62 73 147 100 218 69z"/>
<path d="M5522 3668 c-49 -16 -129 -93 -159 -152 l-27 -51 -7 45 c-4 25 -10
66 -14 93 l-6 47 -120 0 -119 0 0 -510 0 -510 139 0 140 0 3 293 3 292 29 63
c30 66 79 117 121 128 14 3 54 4 89 2 l64 -4 22 129 c12 70 20 131 17 134 -12
11 -143 12 -175 1z"/>
<path d="M6029 3657 c-196 -67 -309 -258 -309 -522 0 -133 18 -214 67 -307 57
-109 149 -180 276 -214 69 -18 228 -18 302 1 69 18 167 64 210 98 l29 25 -57
76 -58 77 -28 -21 c-128 -90 -313 -91 -394 -1 -35 39 -67 119 -67 168 l0 23
320 0 320 0 0 103 c0 268 -103 433 -311 498 -87 27 -214 25 -300 -4z m281
-213 c39 -42 60 -105 60 -179 l0 -35 -186 0 -187 0 7 48 c11 85 35 139 78 177
40 37 41 37 115 33 73 -3 76 -5 113 -44z"/>
<path d="M7005 3667 c-203 -52 -310 -217 -250 -388 37 -105 113 -160 305 -222
149 -48 181 -65 198 -103 41 -89 -27 -154 -161 -154 -88 0 -155 18 -222 61
l-50 32 -68 -74 -68 -74 33 -27 c90 -74 233 -118 383 -118 255 0 426 116 442
300 16 174 -72 274 -306 346 -155 49 -206 75 -219 114 -13 36 -4 66 28 95 19
17 36 20 119 20 88 0 102 -3 165 -32 37 -18 72 -33 76 -33 8 0 100 135 100
148 0 13 -101 70 -165 93 -75 26 -264 35 -340 16z"/>
<path d="M7923 3665 c-113 -31 -187 -86 -229 -171 -49 -101 -33 -219 41 -302
54 -60 113 -92 245 -132 174 -54 210 -79 210 -145 0 -81 -49 -115 -169 -115
-87 0 -161 21 -226 65 -20 14 -39 25 -43 25 -4 0 -36 -32 -71 -71 -62 -69 -63
-70 -45 -90 32 -36 138 -88 219 -109 88 -23 232 -27 317 -9 136 28 260 125
289 226 30 105 9 212 -56 282 -54 58 -118 90 -282 142 -91 30 -134 49 -155 69
-45 45 -35 105 22 135 62 32 231 9 317 -44 l31 -20 51 77 c45 69 49 78 35 93
-24 27 -134 77 -205 94 -79 18 -227 18 -296 0z"/>
<path d="M9870 3664 c-88 -24 -141 -54 -203 -115 -98 -98 -147 -235 -147 -414
0 -275 124 -462 343 -521 61 -16 213 -18 276 -3 234 54 375 280 358 574 -15
257 -136 426 -342 480 -74 19 -212 18 -285 -1z m215 -203 c49 -22 68 -43 97
-106 21 -46 23 -64 23 -215 0 -157 -1 -168 -26 -221 -43 -91 -120 -132 -214
-115 -45 9 -103 60 -126 111 -29 65 -42 210 -30 315 6 49 16 102 22 117 41
108 155 160 254 114z"/>
<path d="M9080 3140 l0 -510 135 0 135 0 0 510 0 510 -135 0 -135 0 0 -510z"/>
<path d="M8697 2916 c-78 -28 -113 -88 -105 -176 13 -131 174 -189 272 -97
127 120 -3 333 -167 273z"/>
</g>
</svg>
